<svg width="40" height="18" viewBox="0 0 40 18" fill="none" xmlns="http://www.w3.org/2000/svg">
<path id="mc" d="M12.9062 17.7812C12.3021 17.7812 11.1979 18.6562 9.59375 20.4062C8.39583 21.7708 7.52604 22.7969 6.98438 23.4844L5.57812 25.2656C4.97396 26.4115 4.5 27.3646 4.15625 28.125L3.3125 29.9375C3.09375 30.3854 2.90104 30.7031 2.73438 30.8906C2.57812 31.0677 2.35938 31.1562 2.07812 31.1562C1.80729 31.1562 1.54167 31.1042 1.28125 31C1.03125 30.9062 0.8125 30.7812 0.625 30.625C0.229167 30.2917 0.03125 29.9271 0.03125 29.5312C0.03125 29.375 0.145833 29.0677 0.375 28.6094L0.96875 27.3438C1.15625 26.9688 1.375 26.4896 1.625 25.9062L2.5 23.7656C3.72917 20.6927 4.34375 18.7083 4.34375 17.8125C4.34375 17.3333 4.1875 16.9792 3.875 16.75L3.5625 16.5312C3.45833 16.4583 3.40625 16.3333 3.40625 16.1562C3.40625 15.9688 3.47396 15.7917 3.60938 15.625C3.75521 15.4583 3.94271 15.3125 4.17188 15.1875C4.64062 14.9479 5.10938 14.8281 5.57812 14.8281C6.05729 14.8281 6.43229 14.8802 6.70312 14.9844C6.97396 15.0885 7.20833 15.2292 7.40625 15.4062C7.80208 15.7708 8 16.151 8 16.5469C8 16.9427 7.94792 17.3438 7.84375 17.75C7.73958 18.1458 7.60938 18.5521 7.45312 18.9688C7.29688 19.375 7.13021 19.7708 6.95312 20.1562C6.53646 21.0521 6.27604 21.6042 6.17188 21.8125C6.07812 22.0104 6.05208 22.0833 6.09375 22.0312C8 19.5625 9.14583 18.1042 9.53125 17.6562C10.3333 16.7292 10.9583 16.0938 11.4062 15.75C12.2292 15.1354 13.0052 14.8281 13.7344 14.8281C14.474 14.8281 15.0625 15.0573 15.5 15.5156C15.9375 15.974 16.1562 16.5781 16.1562 17.3281C16.1562 17.9844 15.9896 18.7552 15.6562 19.6406C15.3229 20.526 15.099 21.1458 14.9844 21.5L17.2812 18.4688L18.5625 16.9375C19.3333 16.0729 20.0104 15.5052 20.5938 15.2344C21.1771 14.9635 21.651 14.8281 22.0156 14.8281C22.3906 14.8281 22.7552 14.8958 23.1094 15.0312C23.474 15.1667 23.7812 15.3594 24.0312 15.6094C24.5625 16.1198 24.8281 16.7969 24.8281 17.6406C24.8281 18.4531 24.6406 19.2865 24.2656 20.1406C23.8906 20.9948 23.5625 21.6979 23.2812 22.25C23 22.7917 22.7292 23.3385 22.4688 23.8906C21.7083 25.5469 21.3281 26.776 21.3281 27.5781C21.3281 28.1406 21.5573 28.4219 22.0156 28.4219C22.4531 28.4219 22.849 28.3281 23.2031 28.1406C23.5677 27.9531 23.8021 27.8594 23.9062 27.8594C24.125 27.8594 24.2344 27.9688 24.2344 28.1875C24.2344 29.1146 23.7604 29.8906 22.8125 30.5156C22.1771 30.9427 21.5938 31.1562 21.0625 31.1562C20.5417 31.1562 20.1198 31.0938 19.7969 30.9688C19.474 30.8438 19.1823 30.6458 18.9219 30.375C18.3385 29.7708 18.0469 29.0156 18.0469 28.1094C18.0469 27.2031 18.1615 26.3698 18.3906 25.6094C18.6198 24.849 18.8906 24.1146 19.2031 23.4062C19.5156 22.6875 19.8281 22.0312 20.1406 21.4375C20.4635 20.8333 20.7083 20.3542 20.875 20C21.2083 19.2708 21.375 18.7344 21.375 18.3906C21.375 17.9844 21.1615 17.7812 20.7344 17.7812C20.1719 17.7812 19.1615 18.7135 17.7031 20.5781C16.599 22.026 15.8333 23.0677 15.4062 23.7031L14.3281 25.2656C13.724 26.4115 13.2604 27.3646 12.9375 28.125L12.1406 29.9375C11.9427 30.3854 11.7708 30.7031 11.625 30.8906C11.4792 31.0677 11.276 31.1562 11.0156 31.1562C10.7552 31.1562 10.5 31.1146 10.25 31.0312C10.0104 30.9479 9.80208 30.8385 9.625 30.7031C9.21875 30.401 9.01562 30.0833 9.01562 29.75C9.01562 29.4062 9.125 28.9427 9.34375 28.3594C9.57292 27.7656 9.85417 27.1042 10.1875 26.375L12.375 21.75C13.1562 20.0312 13.5469 18.9427 13.5469 18.4844C13.5469 18.0156 13.3333 17.7812 12.9062 17.7812ZM14.4531 22.1875C14.4635 22.1875 14.4688 22.1823 14.4688 22.1719L14.4844 22.1406C14.4635 22.1615 14.4531 22.1771 14.4531 22.1875ZM25.5562 25.6094C25.5771 24.7031 25.7177 23.8021 25.9781 22.9062C26.249 22 26.6031 21.1458 27.0406 20.3438C27.4885 19.5417 28.0146 18.8021 28.6187 18.125C29.2333 17.4479 29.9 16.8646 30.6187 16.375C32.1187 15.3438 33.6969 14.8281 35.3531 14.8281C37.0615 14.8281 38.2229 15.5104 38.8375 16.875C39.0562 17.3646 39.1552 17.9219 39.1344 18.5469C39.124 19.1615 39.025 19.7292 38.8375 20.25C38.65 20.7604 38.4156 21.2188 38.1344 21.625C37.499 22.5417 36.8583 23 36.2125 23C35.4937 23 34.9625 22.8021 34.6187 22.4062C34.3167 22.0625 34.2229 21.6615 34.3375 21.2031C34.3687 21.0677 34.4625 20.9479 34.6187 20.8438C34.775 20.7292 34.9729 20.5521 35.2125 20.3125C35.8896 19.6042 36.2437 18.776 36.275 17.8281C36.2958 17.1823 35.9 16.8594 35.0875 16.8594C34.2125 16.8594 33.2958 17.349 32.3375 18.3281C30.9417 19.7552 29.9573 21.5833 29.3844 23.8125C28.8844 25.75 28.9781 27.1667 29.6656 28.0625C30.0719 28.5833 30.624 28.8438 31.3219 28.8438C32.499 28.8438 33.6344 28.4271 34.7281 27.5938C35.0615 27.3333 35.3323 27.0677 35.5406 26.7969C35.749 26.526 35.9417 26.3906 36.1187 26.3906C36.2958 26.3906 36.4417 26.4792 36.5562 26.6562C36.6812 26.8229 36.7437 27.0417 36.7437 27.3125C36.7437 27.9271 36.4677 28.5312 35.9156 29.125C34.499 30.4792 32.7958 31.1562 30.8062 31.1562C29.1083 31.1562 27.7958 30.6719 26.8687 29.7031C25.9521 28.7448 25.5146 27.3802 25.5562 25.6094Z" transform="translate(0 -14)" fill="#404794"/>
</svg>
