<svg width="29" height="28" viewBox="0 0 29 28" version="1.1" xmlns="http://www.w3.org/2000/svg" xmlns:xlink="http://www.w3.org/1999/xlink">
<g id="Canvas" fill="none">
<g id="icon-search">
<g id="Vector">
<path d="M 21.2462 17.9424C 24.2615 13.3481 23.5846 7.38803 19.7077 3.41463C 17.4923 1.1796 14.6615 0 11.5846 0C 8.50769 0 5.61538 1.24169 3.4 3.41463C -1.15385 8.00887 -1.09231 15.3348 3.33846 19.867C 5.55385 22.102 8.38462 23.2816 11.5231 23.2816C 13.8 23.2816 15.9538 22.6608 17.8 21.4812L 23.3385 27.0687C 24.5692 28.3104 26.4769 28.3104 27.7077 27.0687L 29 25.765L 21.2462 17.9424ZM 6.84615 16.3282C 4.38461 13.8448 4.26154 9.80931 6.6 7.13969C 6.66154 7.01552 6.78461 6.95344 6.84615 6.89135C 8.13846 5.64967 9.73846 4.90466 11.5231 4.90466C 13.3077 4.90466 14.9692 5.58758 16.2 6.89135C 18.7846 9.49889 18.7846 13.7206 16.2 16.3282C 14.9692 17.5698 13.3077 18.3149 11.5231 18.3149C 9.73846 18.3149 8.13846 17.5698 6.84615 16.3282Z" fill="#48355A"/>
</g>
</g>
</g>
</svg>

