<svg width="93" height="31" viewBox="0 0 93 31" version="1.1" xmlns="http://www.w3.org/2000/svg" xmlns:xlink="http://www.w3.org/1999/xlink">
<g id="Canvas" fill="none">
<g id="logo">
<g id="wi-day-sunny">
<g id="Vector">
<path d="M -1.39956e-07 12.9878C -1.39956e-07 12.6943 0.0978362 12.4374 0.305738 12.2295C 0.51364 12.0339 0.770461 11.936 1.03951 11.936L 3.53434 11.936C 3.81562 11.936 4.04798 12.0339 4.24365 12.2418C 4.42709 12.4497 4.52493 12.6943 4.52493 12.9878C 4.52493 13.2813 4.43932 13.5259 4.25588 13.7338C 4.07244 13.9417 3.82785 14.0395 3.54657 14.0395L 1.05174 14.0395C 0.770461 14.0395 0.52587 13.9417 0.317968 13.7338C 0.110066 13.5259 -1.39956e-07 13.2813 -1.39956e-07 12.9878ZM 3.49765 21.4628C 3.49765 21.1816 3.59548 20.937 3.77893 20.7168L 5.57667 18.968C 5.76011 18.7723 6.0047 18.6867 6.29821 18.6867C 6.59172 18.6867 6.83631 18.7846 7.03198 18.968C 7.22766 19.1515 7.32549 19.3838 7.32549 19.6651C 7.32549 19.9586 7.22766 20.2277 7.03198 20.4478L 5.29539 22.1844C 4.79398 22.5757 4.29257 22.5757 3.79116 22.1844C 3.59548 21.9887 3.49765 21.7441 3.49765 21.4628ZM 3.49765 4.53716C 3.49765 4.25588 3.59548 4.01129 3.77893 3.79116C 4.02352 3.58325 4.28034 3.48542 4.56162 3.48542C 4.83067 3.48542 5.07526 3.58326 5.28316 3.77893L 7.03198 5.57667C 7.22766 5.76011 7.32549 6.0047 7.32549 6.29821C 7.32549 6.59172 7.22766 6.83631 7.03198 7.03198C 6.83631 7.22766 6.59172 7.32549 6.29821 7.32549C 6.0047 7.32549 5.76011 7.22766 5.57667 7.03198L 3.79116 5.28316C 3.59548 5.08749 3.49765 4.83067 3.49765 4.53716ZM 6.61618 12.9878C 6.61618 11.8504 6.89746 10.7865 7.47225 9.80809C 8.04704 8.82973 8.8175 8.04704 9.80809 7.47225C 10.7987 6.89746 11.8504 6.61618 12.9878 6.61618C 13.8438 6.61618 14.6632 6.78739 15.4581 7.12982C 16.2408 7.47225 16.9257 7.92474 17.4882 8.49953C 18.063 9.07432 18.5155 9.74694 18.8457 10.5296C 19.1759 11.3123 19.3471 12.1439 19.3471 13C 19.3471 14.1496 19.0659 15.2135 18.4911 16.1919C 17.9163 17.1703 17.1458 17.9407 16.1675 18.5155C 15.1891 19.0903 14.1251 19.3716 12.9755 19.3716C 11.826 19.3716 10.762 19.0903 9.78363 18.5155C 8.80527 17.9407 8.03481 17.1703 7.46002 16.1919C 6.90969 15.2013 6.61618 14.1373 6.61618 12.9878ZM 8.6952 12.9878C 8.6952 14.1863 9.11101 15.2013 9.95485 16.0452C 10.7865 16.889 11.8015 17.317 13 17.317C 14.1985 17.317 15.2135 16.889 16.0574 16.0452C 16.9012 15.2013 17.3293 14.1863 17.3293 12.9878C 17.3293 11.8137 16.9012 10.8109 16.0574 9.96707C 15.2135 9.13547 14.1985 8.71966 13 8.71966C 11.8137 8.71966 10.7987 9.13547 9.96707 9.96707C 9.11101 10.8109 8.6952 11.8137 8.6952 12.9878ZM 11.9483 22.5024C 11.9483 22.2088 12.0461 21.9643 12.254 21.7686C 12.4619 21.5729 12.7065 21.4751 12.9878 21.4751C 13.2813 21.4751 13.5381 21.5729 13.7338 21.7686C 13.9294 21.9643 14.0273 22.2088 14.0273 22.5024L 14.0273 24.936C 14.0273 25.2295 13.9294 25.4864 13.7215 25.6943C 13.5136 25.9022 13.269 26 12.9878 26C 12.7065 26 12.4497 25.9022 12.254 25.6943C 12.0461 25.4864 11.9483 25.2295 11.9483 24.936L 11.9483 22.5024ZM 11.9483 3.54657L 11.9483 1.05174C 11.9483 0.770461 12.0461 0.52587 12.254 0.317968C 12.4619 0.110066 12.7065 0 13 0C 13.2935 0 13.5259 0.0978363 13.7338 0.305738C 13.9417 0.513641 14.0395 0.758231 14.0395 1.03951L 14.0395 3.54657C 14.0395 3.82785 13.9417 4.06021 13.7338 4.25588C 13.5259 4.45155 13.2813 4.53716 13 4.53716C 12.7187 4.53716 12.4619 4.43932 12.2662 4.25588C 12.0706 4.07244 11.9483 3.82785 11.9483 3.54657ZM 18.699 19.6651C 18.699 19.3838 18.7968 19.1515 18.9802 18.9802C 19.1637 18.7846 19.396 18.699 19.6651 18.699C 19.9586 18.699 20.2032 18.7968 20.3989 18.9802L 22.1844 20.7291C 22.3801 20.937 22.4779 21.1938 22.4779 21.4751C 22.4779 21.7563 22.3801 22.0009 22.1844 22.1966C 21.6952 22.5757 21.206 22.5757 20.7168 22.1966L 18.9802 20.46C 18.7968 20.2399 18.699 19.9831 18.699 19.6651ZM 18.699 6.31044C 18.699 6.0047 18.7968 5.76011 18.9802 5.5889L 20.7168 3.79116C 20.9247 3.59548 21.1693 3.49765 21.4384 3.49765C 21.7319 3.49765 21.9765 3.59548 22.1722 3.80339C 22.3801 4.01129 22.4779 4.25588 22.4779 4.53716C 22.4779 4.8429 22.3801 5.09972 22.1844 5.29539L 20.3989 7.04421C 20.1787 7.23989 19.9341 7.33772 19.6651 7.33772C 19.3838 7.33772 19.1637 7.23989 18.9802 7.04421C 18.7968 6.84854 18.699 6.60395 18.699 6.31044ZM 21.4628 12.9878C 21.4628 12.6943 21.5607 12.4497 21.7563 12.2295C 21.952 12.0339 22.1844 11.936 22.4534 11.936L 24.9238 11.936C 25.2051 11.936 25.4497 12.0461 25.6576 12.254C 25.8655 12.4619 25.9755 12.7065 25.9755 12.9878C 25.9755 13.269 25.8655 13.5136 25.6576 13.7215C 25.4497 13.9294 25.2051 14.0273 24.9238 14.0273L 22.4534 14.0273C 22.1722 14.0273 21.9276 13.9294 21.7441 13.7215C 21.5607 13.5136 21.4628 13.2813 21.4628 12.9878Z" transform="translate(67 1)" fill="#FFE390"/>
</g>
</g>
<g id="Rectangle 2">
<rect width="19" height="19" transform="translate(63 12)" fill="#48355A"/>
</g>
<g id="weather">
<path d="M 15.752 10.044L 15.796 10.22C 15.8107 10.352 15.8327 10.5207 15.862 10.726C 15.8913 10.9313 15.9133 11.1733 15.928 11.452C 15.9573 11.7307 15.972 12.0093 15.972 12.288C 15.972 13.916 15.8767 15.2947 15.686 16.424C 15.51 17.5533 15.2093 18.47 14.784 19.174C 14.3733 19.8633 13.8233 20.3693 13.134 20.692C 12.4447 21 11.594 21.154 10.582 21.154C 9.15933 21.154 8.184 20.5673 7.656 19.394C 7.392 19.9953 7.02533 20.4427 6.556 20.736C 6.10133 21.0147 5.42667 21.154 4.532 21.154C 3.388 21.154 2.56667 20.824 2.068 20.164C 1.56933 19.504 1.32 18.5873 1.32 17.414L 1.32 10.044L 3.828 10.044L 3.828 17.216C 3.828 17.832 3.938 18.3453 4.158 18.756C 4.378 19.152 4.752 19.35 5.28 19.35C 5.95467 19.35 6.47533 19.02 6.842 18.36C 7.20867 17.7 7.392 16.6073 7.392 15.082L 7.392 10.044L 9.878 10.044C 9.86333 11.144 9.856 12.1633 9.856 13.102C 9.856 13.5127 9.84867 13.9233 9.834 14.334C 9.834 14.7447 9.834 15.1333 9.834 15.5C 9.834 15.8667 9.834 16.204 9.834 16.512C 9.834 16.8053 9.834 17.04 9.834 17.216C 9.834 17.832 9.95133 18.3453 10.186 18.756C 10.4207 19.152 10.802 19.35 11.33 19.35C 11.8433 19.35 12.2393 19.152 12.518 18.756C 12.8113 18.36 13.024 17.8467 13.156 17.216C 13.288 16.5707 13.3687 15.8447 13.398 15.038C 13.4273 14.2167 13.442 13.388 13.442 12.552C 13.442 12.2147 13.4273 11.8993 13.398 11.606C 13.3833 11.298 13.354 11.0267 13.31 10.792C 13.2807 10.5573 13.2587 10.374 13.244 10.242L 13.2 10.044L 15.752 10.044ZM 17.7427 15.786C 17.7427 14.8033 17.8747 13.938 18.1387 13.19C 18.4173 12.442 18.7913 11.8187 19.2607 11.32C 19.7447 10.8067 20.3093 10.4253 20.9547 10.176C 21.6 9.912 22.2967 9.78 23.0447 9.78C 23.7047 9.78 24.262 9.86067 24.7167 10.022C 25.186 10.1833 25.5673 10.4033 25.8607 10.682C 26.154 10.9607 26.3667 11.2907 26.4987 11.672C 26.6453 12.0533 26.7187 12.464 26.7187 12.904C 26.7187 13.432 26.572 13.938 26.2787 14.422C 25.9853 14.8913 25.56 15.3093 25.0027 15.676C 24.46 16.028 23.8 16.314 23.0227 16.534C 22.2453 16.7393 21.3727 16.8493 20.4047 16.864C 20.4487 17.2013 20.5147 17.524 20.6027 17.832C 20.7053 18.1253 20.8447 18.3893 21.0207 18.624C 21.2113 18.844 21.4533 19.02 21.7467 19.152C 22.04 19.284 22.4067 19.35 22.8467 19.35C 23.1693 19.35 23.514 19.3133 23.8807 19.24C 24.2473 19.1667 24.5847 19.0787 24.8927 18.976C 25.2593 18.8587 25.6187 18.7267 25.9707 18.58L 26.6307 20.142C 26.2493 20.3327 25.8387 20.5013 25.3987 20.648C 25.0173 20.78 24.5773 20.8973 24.0787 21C 23.58 21.1027 23.052 21.154 22.4947 21.154C 21.644 21.154 20.918 21.0293 20.3167 20.78C 19.7153 20.516 19.224 20.1493 18.8427 19.68C 18.4613 19.2107 18.1827 18.646 18.0067 17.986C 17.8307 17.326 17.7427 16.5927 17.7427 15.786ZM 22.8467 11.496C 22.3627 11.496 21.9593 11.6133 21.6367 11.848C 21.3287 12.068 21.0793 12.3613 20.8887 12.728C 20.698 13.08 20.5587 13.4833 20.4707 13.938C 20.3973 14.378 20.3533 14.8253 20.3387 15.28C 21.0427 15.2507 21.6367 15.1627 22.1207 15.016C 22.6193 14.8547 23.0227 14.664 23.3307 14.444C 23.6387 14.2093 23.8587 13.96 23.9907 13.696C 24.1373 13.432 24.2107 13.168 24.2107 12.904C 24.2107 12.4787 24.086 12.1413 23.8367 11.892C 23.5873 11.628 23.2573 11.496 22.8467 11.496ZM 37.6451 15.698C 37.6451 16.578 37.6964 17.3187 37.7991 17.92C 37.9164 18.5067 38.0411 18.9833 38.1731 19.35C 38.3344 19.79 38.5104 20.1347 38.7011 20.384L 36.7431 21.176C 36.5524 20.9853 36.3764 20.758 36.2151 20.494C 36.0831 20.2593 35.9584 19.9807 35.8411 19.658C 35.7238 19.3207 35.6504 18.9247 35.6211 18.47C 35.3718 19.35 34.9684 20.0173 34.4111 20.472C 33.8684 20.912 33.1278 21.132 32.1891 21.132C 31.4998 21.132 30.8984 21.0073 30.3851 20.758C 29.8864 20.494 29.4684 20.1273 29.1311 19.658C 28.7938 19.174 28.5444 18.5947 28.3831 17.92C 28.2218 17.2453 28.1411 16.4973 28.1411 15.676C 28.1411 14.84 28.2658 14.07 28.5151 13.366C 28.7791 12.6473 29.1384 12.0313 29.5931 11.518C 30.0624 11.0047 30.6198 10.6013 31.2651 10.308C 31.9104 10.0147 32.6218 9.868 33.3991 9.868C 33.8391 9.868 34.2938 9.90467 34.7631 9.978C 35.2471 10.0367 35.6944 10.1027 36.1051 10.176C 36.5158 10.2493 36.8604 10.3227 37.1391 10.396C 37.4324 10.4547 37.6011 10.4913 37.6451 10.506L 37.6451 15.698ZM 32.6071 19.372C 32.9738 19.372 33.3111 19.2473 33.6191 18.998C 33.9271 18.7487 34.1911 18.426 34.4111 18.03C 34.6458 17.6193 34.8218 17.1573 34.9391 16.644C 35.0711 16.116 35.1371 15.5807 35.1371 15.038L 35.1371 11.87C 34.9904 11.826 34.7704 11.7747 34.4771 11.716C 34.1838 11.6573 33.9198 11.628 33.6851 11.628C 33.1278 11.628 32.6658 11.7233 32.2991 11.914C 31.9471 12.1047 31.6611 12.3687 31.4411 12.706C 31.2211 13.0433 31.0671 13.4467 30.9791 13.916C 30.8911 14.3853 30.8471 14.8987 30.8471 15.456C 30.8471 15.9693 30.8618 16.4607 30.8911 16.93C 30.9204 17.3993 30.9938 17.8173 31.1111 18.184C 31.2431 18.5507 31.4264 18.844 31.6611 19.064C 31.8958 19.2693 32.2111 19.372 32.6071 19.372ZM 39.386 10.044L 41.366 10.044L 41.806 7.47L 43.874 7.008L 43.874 10.044L 46.58 10.044L 46.272 11.826L 43.874 11.826L 43.874 18.338C 43.874 18.7193 43.9767 18.9687 44.182 19.086C 44.3873 19.1887 44.6147 19.24 44.864 19.24C 45.0693 19.24 45.2747 19.2253 45.48 19.196C 45.6853 19.1667 45.8687 19.13 46.03 19.086C 46.2207 19.042 46.404 18.9907 46.58 18.932L 46.998 20.582L 46.8 20.648C 46.668 20.7067 46.47 20.7727 46.206 20.846C 45.9567 20.9047 45.656 20.956 45.304 21C 44.9667 21.0587 44.5927 21.088 44.182 21.088C 43.7713 21.088 43.39 21.044 43.038 20.956C 42.7007 20.868 42.4073 20.7287 42.158 20.538C 41.9087 20.3327 41.7107 20.076 41.564 19.768C 41.432 19.46 41.366 19.0787 41.366 18.624L 41.366 11.826L 39.386 11.826L 39.386 10.044ZM 51.0532 11.452C 51.4786 10.8947 51.9846 10.4913 52.5712 10.242C 53.1726 9.99267 53.8032 9.868 54.4632 9.868C 55.5926 9.868 56.4066 10.2127 56.9052 10.902C 57.4186 11.5767 57.6752 12.4933 57.6752 13.652L 57.6752 21L 55.1672 21L 55.1672 13.828C 55.1672 13.212 55.0572 12.728 54.8372 12.376C 54.6172 12.0093 54.2432 11.826 53.7152 11.826C 53.4072 11.826 53.0919 11.9067 52.7692 12.068C 52.4612 12.2293 52.1752 12.464 51.9112 12.772C 51.6619 13.0653 51.4566 13.4173 51.2952 13.828C 51.1339 14.2387 51.0532 14.6933 51.0532 15.192L 51.0532 21L 48.5452 21L 48.5452 5.49L 51.0532 5.05L 51.0532 11.452ZM 59.7661 15.786C 59.7661 14.8033 59.8981 13.938 60.1621 13.19C 60.4408 12.442 60.8148 11.8187 61.2841 11.32C 61.7681 10.8067 62.3328 10.4253 62.9781 10.176C 63.6234 9.912 64.3201 9.78 65.0681 9.78C 65.7281 9.78 66.2854 9.86067 66.7401 10.022C 67.2094 10.1833 67.5908 10.4033 67.8841 10.682C 68.1774 10.9607 68.3901 11.2907 68.5221 11.672C 68.6688 12.0533 68.7421 12.464 68.7421 12.904C 68.7421 13.432 68.5954 13.938 68.3021 14.422C 68.0088 14.8913 67.5834 15.3093 67.0261 15.676C 66.4834 16.028 65.8234 16.314 65.0461 16.534C 64.2688 16.7393 63.3961 16.8493 62.4281 16.864C 62.4721 17.2013 62.5381 17.524 62.6261 17.832C 62.7288 18.1253 62.8681 18.3893 63.0441 18.624C 63.2348 18.844 63.4768 19.02 63.7701 19.152C 64.0634 19.284 64.4301 19.35 64.8701 19.35C 65.1928 19.35 65.5374 19.3133 65.9041 19.24C 66.2708 19.1667 66.6081 19.0787 66.9161 18.976C 67.2828 18.8587 67.6421 18.7267 67.9941 18.58L 68.6541 20.142C 68.2728 20.3327 67.8621 20.5013 67.4221 20.648C 67.0408 20.78 66.6008 20.8973 66.1021 21C 65.6034 21.1027 65.0754 21.154 64.5181 21.154C 63.6674 21.154 62.9414 21.0293 62.3401 20.78C 61.7388 20.516 61.2474 20.1493 60.8661 19.68C 60.4848 19.2107 60.2061 18.646 60.0301 17.986C 59.8541 17.326 59.7661 16.5927 59.7661 15.786ZM 64.8701 11.496C 64.3861 11.496 63.9828 11.6133 63.6601 11.848C 63.3521 12.068 63.1028 12.3613 62.9121 12.728C 62.7214 13.08 62.5821 13.4833 62.4941 13.938C 62.4208 14.378 62.3768 14.8253 62.3621 15.28C 63.0661 15.2507 63.6601 15.1627 64.1441 15.016C 64.6428 14.8547 65.0461 14.664 65.3541 14.444C 65.6621 14.2093 65.8821 13.96 66.0141 13.696C 66.1608 13.432 66.2341 13.168 66.2341 12.904C 66.2341 12.4787 66.1094 12.1413 65.8601 11.892C 65.6108 11.628 65.2808 11.496 64.8701 11.496ZM 75.7305 12.332C 75.4665 12.332 75.2025 12.398 74.9385 12.53C 74.6745 12.662 74.4399 12.8453 74.2345 13.08C 74.0292 13.3 73.8605 13.5713 73.7285 13.894C 73.5965 14.2167 73.5305 14.576 73.5305 14.972L 73.5305 21L 71.0225 21L 71.0225 15.456C 71.0225 14.576 70.9639 13.8427 70.8465 13.256C 70.7292 12.6547 70.6045 12.1707 70.4725 11.804C 70.3112 11.3787 70.1352 11.034 69.9445 10.77L 71.9245 9.978C 72.0565 10.1393 72.1959 10.3373 72.3425 10.572C 72.4599 10.7773 72.5772 11.0193 72.6945 11.298C 72.8119 11.5767 72.9072 11.9067 72.9805 12.288C 73.2739 11.4373 73.6992 10.8287 74.2565 10.462C 74.8139 10.0807 75.4445 9.89 76.1485 9.89C 76.4859 9.89 76.8012 9.934 77.0945 10.022C 77.3879 10.0953 77.5272 10.132 77.5125 10.132L 76.8085 12.574C 76.8232 12.574 76.7352 12.5373 76.5445 12.464C 76.3685 12.376 76.0972 12.332 75.7305 12.332Z" transform="translate(0 6)" fill="white"/>
</g>
<g id="LOOK, IT&#226;&#128;&#153;S THE">
<path d="M 0.7 3.23L 1.89 3.23L 1.89 9.1L 4.42 9.1L 4.42 10L 0.7 10L 0.7 3.23ZM 7.33578 3.14C 7.83578 3.14 8.26245 3.22 8.61578 3.38C 8.96911 3.54 9.25911 3.76667 9.48578 4.06C 9.71911 4.35333 9.88911 4.71333 9.99578 5.14C 10.1024 5.56 10.1558 6.03333 10.1558 6.56C 10.1558 7.08 10.0958 7.55667 9.97578 7.99C 9.86245 8.41667 9.68245 8.78333 9.43578 9.09C 9.19578 9.39667 8.88911 9.63667 8.51578 9.81C 8.14911 9.97667 7.71245 10.06 7.20578 10.06C 6.70578 10.06 6.27578 9.98667 5.91578 9.84C 5.56245 9.68667 5.26911 9.46667 5.03578 9.18C 4.80911 8.88667 4.64245 8.53333 4.53578 8.12C 4.42911 7.70667 4.37578 7.23333 4.37578 6.7C 4.37578 6.18 4.43245 5.70333 4.54578 5.27C 4.66578 4.83 4.84578 4.45333 5.08578 4.14C 5.33245 3.82 5.64245 3.57333 6.01578 3.4C 6.38911 3.22667 6.82911 3.14 7.33578 3.14ZM 7.19578 4.06C 6.90245 4.06 6.65911 4.12667 6.46578 4.26C 6.27245 4.38667 6.11578 4.56333 5.99578 4.79C 5.87578 5.01667 5.78911 5.28333 5.73578 5.59C 5.68911 5.89667 5.66578 6.23 5.66578 6.59C 5.66578 6.93 5.68911 7.25333 5.73578 7.56C 5.78245 7.86667 5.86578 8.13667 5.98578 8.37C 6.11245 8.60333 6.28245 8.79 6.49578 8.93C 6.71578 9.07 6.99911 9.14 7.34578 9.14C 7.63245 9.14 7.87245 9.07667 8.06578 8.95C 8.26578 8.82333 8.42578 8.65 8.54578 8.43C 8.66578 8.21 8.74911 7.95 8.79578 7.65C 8.84911 7.34333 8.87578 7.01333 8.87578 6.66C 8.87578 6.32 8.85245 5.99333 8.80578 5.68C 8.75911 5.36667 8.67245 5.09 8.54578 4.85C 8.42578 4.61 8.25578 4.42 8.03578 4.28C 7.82245 4.13333 7.54245 4.06 7.19578 4.06ZM 14.0155 3.14C 14.5155 3.14 14.9421 3.22 15.2955 3.38C 15.6488 3.54 15.9388 3.76667 16.1655 4.06C 16.3988 4.35333 16.5688 4.71333 16.6755 5.14C 16.7821 5.56 16.8355 6.03333 16.8355 6.56C 16.8355 7.08 16.7755 7.55667 16.6555 7.99C 16.5421 8.41667 16.3621 8.78333 16.1155 9.09C 15.8755 9.39667 15.5688 9.63667 15.1955 9.81C 14.8288 9.97667 14.3921 10.06 13.8855 10.06C 13.3855 10.06 12.9555 9.98667 12.5955 9.84C 12.2421 9.68667 11.9488 9.46667 11.7155 9.18C 11.4888 8.88667 11.3221 8.53333 11.2155 8.12C 11.1088 7.70667 11.0555 7.23333 11.0555 6.7C 11.0555 6.18 11.1121 5.70333 11.2255 5.27C 11.3455 4.83 11.5255 4.45333 11.7655 4.14C 12.0121 3.82 12.3221 3.57333 12.6955 3.4C 13.0688 3.22667 13.5088 3.14 14.0155 3.14ZM 13.8755 4.06C 13.5821 4.06 13.3388 4.12667 13.1455 4.26C 12.9521 4.38667 12.7955 4.56333 12.6755 4.79C 12.5555 5.01667 12.4688 5.28333 12.4155 5.59C 12.3688 5.89667 12.3455 6.23 12.3455 6.59C 12.3455 6.93 12.3688 7.25333 12.4155 7.56C 12.4621 7.86667 12.5455 8.13667 12.6655 8.37C 12.7921 8.60333 12.9621 8.79 13.1755 8.93C 13.3955 9.07 13.6788 9.14 14.0255 9.14C 14.3121 9.14 14.5521 9.07667 14.7455 8.95C 14.9455 8.82333 15.1055 8.65 15.2255 8.43C 15.3455 8.21 15.4288 7.95 15.4755 7.65C 15.5288 7.34333 15.5555 7.01333 15.5555 6.66C 15.5555 6.32 15.5321 5.99333 15.4855 5.68C 15.4388 5.36667 15.3521 5.09 15.2255 4.85C 15.1055 4.61 14.9355 4.42 14.7155 4.28C 14.5021 4.13333 14.2221 4.06 13.8755 4.06ZM 17.9852 3.23L 19.1752 3.23L 19.1752 10L 17.9852 10L 17.9852 3.23ZM 22.6752 3.23C 22.5685 3.73 22.4485 4.15667 22.3152 4.51C 22.1885 4.85667 22.0485 5.15333 21.8952 5.4C 21.7418 5.64 21.5718 5.84667 21.3852 6.02C 21.2052 6.18667 21.0118 6.34 20.8052 6.48L 23.2652 10L 21.8852 10L 19.3052 6.34L 19.3052 6.27C 19.9185 6.04333 20.3918 5.67333 20.7252 5.16C 21.0652 4.64 21.3252 3.99667 21.5052 3.23L 22.6752 3.23ZM 24.0634 8.77C 24.07 8.76333 24.1234 8.73333 24.2234 8.68C 24.3234 8.62 24.49 8.59 24.7234 8.59C 24.9567 8.59 25.1267 8.66 25.2334 8.8C 25.34 8.94 25.3934 9.11667 25.3934 9.33C 25.3934 9.60333 25.3534 9.85 25.2734 10.07C 25.2 10.29 25.1 10.49 24.9734 10.67C 24.8467 10.85 24.7 11.0067 24.5334 11.14C 24.3734 11.2733 24.2034 11.3833 24.0234 11.47L 23.5934 10.89C 23.8534 10.6967 24.0267 10.5033 24.1134 10.31C 24.2067 10.1167 24.2534 9.93 24.2534 9.75C 24.2534 9.55667 24.2234 9.37667 24.1634 9.21C 24.1034 9.04333 24.07 8.89667 24.0634 8.77ZM 29.2449 3.23L 30.4349 3.23L 30.4349 10L 29.2449 10L 29.2449 3.23ZM 35.9528 3.23L 35.8028 4.13L 34.1228 4.13L 34.1228 10L 32.9428 10L 32.9428 4.13L 31.2328 4.13L 31.2328 3.23L 35.9528 3.23ZM 36.8345 2.94C 36.8411 2.93333 36.8945 2.90333 36.9945 2.85C 37.0945 2.79 37.2611 2.76 37.4945 2.76C 37.7278 2.76 37.8978 2.83 38.0045 2.97C 38.1111 3.11 38.1645 3.28667 38.1645 3.5C 38.1645 3.77333 38.1245 4.02 38.0445 4.24C 37.9711 4.46 37.8711 4.66 37.7445 4.84C 37.6178 5.02 37.4711 5.17667 37.3045 5.31C 37.1445 5.44333 36.9745 5.55333 36.7945 5.64L 36.3645 5.06C 36.6245 4.86667 36.7978 4.67333 36.8845 4.48C 36.9778 4.28667 37.0245 4.1 37.0245 3.92C 37.0245 3.72667 36.9945 3.54667 36.9345 3.38C 36.8745 3.21333 36.8411 3.06667 36.8345 2.94ZM 41.0191 3.14C 41.2525 3.14 41.4758 3.16333 41.6891 3.21C 41.9025 3.25 42.0958 3.3 42.2691 3.36C 42.4491 3.41333 42.5991 3.47 42.7191 3.53C 42.8458 3.59 42.9325 3.63667 42.9791 3.67L 42.4891 4.53L 42.3591 4.46C 42.2725 4.41333 42.1591 4.36 42.0191 4.3C 41.8791 4.24 41.7258 4.18667 41.5591 4.14C 41.3925 4.09333 41.2325 4.07 41.0791 4.07C 40.8391 4.07 40.6291 4.12667 40.4491 4.24C 40.2758 4.35333 40.1891 4.53 40.1891 4.77C 40.1891 5.07 40.2858 5.31667 40.4791 5.51C 40.6725 5.69667 40.9758 5.87 41.3891 6.03C 41.6558 6.13667 41.8925 6.25 42.0991 6.37C 42.3125 6.48333 42.4925 6.61667 42.6391 6.77C 42.7858 6.92333 42.8958 7.1 42.9691 7.3C 43.0491 7.5 43.0891 7.74 43.0891 8.02C 43.0891 8.27333 43.0391 8.52333 42.9391 8.77C 42.8458 9.01667 42.7025 9.23667 42.5091 9.43C 42.3225 9.61667 42.0891 9.77 41.8091 9.89C 41.5291 10.0033 41.2058 10.06 40.8391 10.06C 40.5791 10.06 40.3325 10.0333 40.0991 9.98C 39.8658 9.92667 39.6525 9.86667 39.4591 9.8C 39.2725 9.72667 39.1091 9.65333 38.9691 9.58C 38.8358 9.50667 38.7358 9.45 38.6691 9.41L 39.0891 8.49L 39.2691 8.59C 39.3891 8.65667 39.5358 8.73 39.7091 8.81C 39.8825 8.89 40.0658 8.96333 40.2591 9.03C 40.4525 9.09667 40.6191 9.13 40.7591 9.13C 41.1125 9.13 41.3758 9.04333 41.5491 8.87C 41.7225 8.69667 41.8091 8.45333 41.8091 8.14C 41.8091 7.99333 41.7858 7.86667 41.7391 7.76C 41.6925 7.64667 41.6258 7.55 41.5391 7.47C 41.4525 7.39 41.3458 7.32 41.2191 7.26C 41.0991 7.19333 40.9625 7.13 40.8091 7.07C 40.5091 6.94333 40.2391 6.81667 39.9991 6.69C 39.7658 6.56333 39.5658 6.42 39.3991 6.26C 39.2325 6.09333 39.1058 5.90667 39.0191 5.7C 38.9325 5.48667 38.8891 5.23333 38.8891 4.94C 38.8891 4.69333 38.9425 4.46333 39.0491 4.25C 39.1558 4.03 39.3025 3.84 39.4891 3.68C 39.6758 3.51333 39.8991 3.38333 40.1591 3.29C 40.4191 3.19 40.7058 3.14 41.0191 3.14ZM 50.8063 3.23L 50.6563 4.13L 48.9763 4.13L 48.9763 10L 47.7963 10L 47.7963 4.13L 46.0863 4.13L 46.0863 3.23L 50.8063 3.23ZM 55.598 6.92L 52.808 6.92L 52.808 10L 51.618 10L 51.618 3.23L 52.808 3.23L 52.808 6.05L 55.598 6.05L 55.598 3.23L 56.788 3.23L 56.788 10L 55.598 10L 55.598 6.92ZM 58.1902 3.23L 62.2102 3.23L 62.2102 4.13L 59.3802 4.13L 59.3802 6.02L 61.7102 6.02L 61.5602 6.93L 59.3802 6.93L 59.3802 9.1L 62.3602 9.1L 62.3602 10L 58.1902 10L 58.1902 3.23Z" transform="translate(0 -2)" fill="#E9DBF7" fill-opacity="0.75"/>
</g>
</g>
</g>
</svg>

